<mxfile host="app.diagrams.net" agent="Mozilla/5.0 (Windows NT 10.0; Win64; x64) AppleWebKit/537.36 (KHTML, like Gecko) Chrome/127.0.0.0 Safari/537.36" version="24.7.6">
  <diagram name="Page-1" id="jyMvZk-oaAMmgPRDSJ3N">
    <mxGraphModel dx="993" dy="558" grid="1" gridSize="10" guides="1" tooltips="1" connect="1" arrows="1" fold="1" page="1" pageScale="1" pageWidth="850" pageHeight="1100" math="0" shadow="0">
      <root>
        <mxCell id="0" />
        <mxCell id="1" parent="0" />
        <mxCell id="Hd3YsqLoLBnvvxdRsD4A-1" value="" style="ellipse;html=1;shape=startState;fillColor=#000000;strokeColor=#ff0000;" vertex="1" parent="1">
          <mxGeometry x="125" y="72" width="30" height="30" as="geometry" />
        </mxCell>
        <mxCell id="Hd3YsqLoLBnvvxdRsD4A-2" value="" style="edgeStyle=orthogonalEdgeStyle;html=1;verticalAlign=bottom;endArrow=open;endSize=8;strokeColor=#ff0000;rounded=0;" edge="1" parent="1">
          <mxGeometry relative="1" as="geometry">
            <mxPoint x="140" y="162" as="targetPoint" />
            <mxPoint x="140" y="99" as="sourcePoint" />
          </mxGeometry>
        </mxCell>
        <mxCell id="Hd3YsqLoLBnvvxdRsD4A-3" value="Idle" style="rounded=1;whiteSpace=wrap;html=1;" vertex="1" parent="1">
          <mxGeometry x="80" y="160" width="120" height="40" as="geometry" />
        </mxCell>
        <mxCell id="Hd3YsqLoLBnvvxdRsD4A-4" value="Logged in" style="rounded=1;whiteSpace=wrap;html=1;" vertex="1" parent="1">
          <mxGeometry x="320" y="160" width="120" height="40" as="geometry" />
        </mxCell>
        <mxCell id="Hd3YsqLoLBnvvxdRsD4A-5" value="Checked/Viewed Service Request" style="rounded=1;whiteSpace=wrap;html=1;" vertex="1" parent="1">
          <mxGeometry x="320" y="320" width="120" height="40" as="geometry" />
        </mxCell>
        <mxCell id="Hd3YsqLoLBnvvxdRsD4A-6" value="Accepted/Rejected Service Request" style="rounded=1;whiteSpace=wrap;html=1;" vertex="1" parent="1">
          <mxGeometry x="320" y="478" width="120" height="40" as="geometry" />
        </mxCell>
        <mxCell id="Hd3YsqLoLBnvvxdRsD4A-7" value="Managed Profile" style="rounded=1;whiteSpace=wrap;html=1;" vertex="1" parent="1">
          <mxGeometry x="720" y="160" width="120" height="40" as="geometry" />
        </mxCell>
        <mxCell id="Hd3YsqLoLBnvvxdRsD4A-8" value="Updated Service Status" style="rounded=1;whiteSpace=wrap;html=1;" vertex="1" parent="1">
          <mxGeometry x="720" y="478" width="120" height="40" as="geometry" />
        </mxCell>
        <mxCell id="Hd3YsqLoLBnvvxdRsD4A-9" value="Connected with Service Seeker" style="rounded=1;whiteSpace=wrap;html=1;" vertex="1" parent="1">
          <mxGeometry x="320" y="640" width="120" height="40" as="geometry" />
        </mxCell>
        <mxCell id="Hd3YsqLoLBnvvxdRsD4A-10" value="Arrived Place" style="rounded=1;whiteSpace=wrap;html=1;" vertex="1" parent="1">
          <mxGeometry x="320" y="800" width="120" height="40" as="geometry" />
        </mxCell>
        <mxCell id="Hd3YsqLoLBnvvxdRsD4A-11" value="Provided Service" style="rounded=1;whiteSpace=wrap;html=1;" vertex="1" parent="1">
          <mxGeometry x="320" y="960" width="120" height="40" as="geometry" />
        </mxCell>
        <mxCell id="Hd3YsqLoLBnvvxdRsD4A-12" value="Completed Service" style="rounded=1;whiteSpace=wrap;html=1;" vertex="1" parent="1">
          <mxGeometry x="600" y="960" width="120" height="40" as="geometry" />
        </mxCell>
        <mxCell id="Hd3YsqLoLBnvvxdRsD4A-16" value="If need an Emergency" style="rhombus;whiteSpace=wrap;html=1;fillColor=#ffe6cc;strokeColor=#d79b00;" vertex="1" parent="1">
          <mxGeometry x="335" y="1128" width="90" height="100" as="geometry" />
        </mxCell>
        <mxCell id="Hd3YsqLoLBnvvxdRsD4A-18" value="" style="rounded=1;whiteSpace=wrap;html=1;glass=0;movable=1;resizable=1;rotatable=1;deletable=1;editable=1;locked=0;connectable=1;" vertex="1" parent="1">
          <mxGeometry x="10" y="1280" width="280" height="158" as="geometry" />
        </mxCell>
        <mxCell id="Hd3YsqLoLBnvvxdRsD4A-19" value="&lt;b&gt;Login&lt;/b&gt;" style="html=1;verticalAlign=bottom;endArrow=block;curved=0;rounded=0;exitX=1;exitY=0.5;exitDx=0;exitDy=0;entryX=0;entryY=0.5;entryDx=0;entryDy=0;" edge="1" parent="1" source="Hd3YsqLoLBnvvxdRsD4A-3" target="Hd3YsqLoLBnvvxdRsD4A-4">
          <mxGeometry y="10" width="80" relative="1" as="geometry">
            <mxPoint x="210" y="179.57" as="sourcePoint" />
            <mxPoint x="290" y="179.57" as="targetPoint" />
            <mxPoint as="offset" />
          </mxGeometry>
        </mxCell>
        <mxCell id="Hd3YsqLoLBnvvxdRsD4A-20" value="&lt;b&gt;Managing Profile&lt;/b&gt;" style="html=1;verticalAlign=bottom;endArrow=block;curved=0;rounded=0;exitX=1;exitY=0.5;exitDx=0;exitDy=0;entryX=0;entryY=0.5;entryDx=0;entryDy=0;" edge="1" parent="1" source="Hd3YsqLoLBnvvxdRsD4A-4" target="Hd3YsqLoLBnvvxdRsD4A-7">
          <mxGeometry y="10" width="80" relative="1" as="geometry">
            <mxPoint x="500" y="170" as="sourcePoint" />
            <mxPoint x="620" y="170" as="targetPoint" />
            <mxPoint as="offset" />
          </mxGeometry>
        </mxCell>
        <mxCell id="Hd3YsqLoLBnvvxdRsD4A-21" value="&lt;b&gt;Checking/Viewing Service Request&lt;/b&gt;" style="html=1;verticalAlign=bottom;endArrow=block;curved=0;rounded=0;exitX=0.5;exitY=1;exitDx=0;exitDy=0;entryX=0.5;entryY=0;entryDx=0;entryDy=0;" edge="1" parent="1" source="Hd3YsqLoLBnvvxdRsD4A-4" target="Hd3YsqLoLBnvvxdRsD4A-5">
          <mxGeometry x="0.1667" y="110" width="80" relative="1" as="geometry">
            <mxPoint x="350" y="280" as="sourcePoint" />
            <mxPoint x="470" y="280" as="targetPoint" />
            <mxPoint as="offset" />
          </mxGeometry>
        </mxCell>
        <mxCell id="Hd3YsqLoLBnvvxdRsD4A-22" value="&lt;b&gt;Updating Service Status&lt;/b&gt;" style="html=1;verticalAlign=bottom;endArrow=block;curved=0;rounded=0;exitX=0.5;exitY=1;exitDx=0;exitDy=0;entryX=0.5;entryY=0;entryDx=0;entryDy=0;" edge="1" parent="1" source="Hd3YsqLoLBnvvxdRsD4A-7" target="Hd3YsqLoLBnvvxdRsD4A-8">
          <mxGeometry x="0.0072" y="100" width="80" relative="1" as="geometry">
            <mxPoint x="660" y="290" as="sourcePoint" />
            <mxPoint x="780" y="290" as="targetPoint" />
            <mxPoint as="offset" />
          </mxGeometry>
        </mxCell>
        <mxCell id="Hd3YsqLoLBnvvxdRsD4A-23" value="&lt;b&gt;Providing Service&lt;/b&gt;" style="html=1;verticalAlign=bottom;endArrow=block;curved=0;rounded=0;exitX=0.488;exitY=1.158;exitDx=0;exitDy=0;entryX=0.5;entryY=0;entryDx=0;entryDy=0;exitPerimeter=0;" edge="1" parent="1" source="Hd3YsqLoLBnvvxdRsD4A-5" target="Hd3YsqLoLBnvvxdRsD4A-6">
          <mxGeometry x="1" y="436" width="80" relative="1" as="geometry">
            <mxPoint x="400" y="440" as="sourcePoint" />
            <mxPoint x="520" y="440" as="targetPoint" />
            <mxPoint x="-376" y="437" as="offset" />
          </mxGeometry>
        </mxCell>
        <mxCell id="Hd3YsqLoLBnvvxdRsD4A-24" value="&lt;b&gt;Accepting/Rejecting Service Request&lt;/b&gt;" style="html=1;verticalAlign=bottom;endArrow=block;curved=0;rounded=0;exitX=0.5;exitY=1;exitDx=0;exitDy=0;" edge="1" parent="1" source="Hd3YsqLoLBnvvxdRsD4A-6" target="Hd3YsqLoLBnvvxdRsD4A-9">
          <mxGeometry x="-1" y="149" width="80" relative="1" as="geometry">
            <mxPoint x="400" y="550" as="sourcePoint" />
            <mxPoint x="401" y="662" as="targetPoint" />
            <mxPoint x="-29" y="-88" as="offset" />
          </mxGeometry>
        </mxCell>
        <mxCell id="Hd3YsqLoLBnvvxdRsD4A-25" value="&lt;b&gt;Connecting with Service Seeker&lt;/b&gt;" style="html=1;verticalAlign=bottom;endArrow=block;curved=0;rounded=0;exitX=0.5;exitY=1;exitDx=0;exitDy=0;entryX=0.5;entryY=0;entryDx=0;entryDy=0;" edge="1" parent="1">
          <mxGeometry x="-1" y="142" width="80" relative="1" as="geometry">
            <mxPoint x="380" y="680" as="sourcePoint" />
            <mxPoint x="380" y="800" as="targetPoint" />
            <mxPoint x="-32" y="-90" as="offset" />
          </mxGeometry>
        </mxCell>
        <mxCell id="Hd3YsqLoLBnvvxdRsD4A-26" value="&lt;b&gt;Arriving Service Seeker&#39;s Place&lt;/b&gt;" style="html=1;verticalAlign=bottom;endArrow=block;curved=0;rounded=0;exitX=0.5;exitY=1;exitDx=0;exitDy=0;entryX=0.5;entryY=0;entryDx=0;entryDy=0;" edge="1" parent="1" source="Hd3YsqLoLBnvvxdRsD4A-10" target="Hd3YsqLoLBnvvxdRsD4A-11">
          <mxGeometry x="-1" y="135" width="80" relative="1" as="geometry">
            <mxPoint x="400" y="860" as="sourcePoint" />
            <mxPoint x="400" y="980" as="targetPoint" />
            <mxPoint x="-35" y="-90" as="offset" />
          </mxGeometry>
        </mxCell>
        <mxCell id="Hd3YsqLoLBnvvxdRsD4A-27" value="&lt;b&gt;Completing Service&lt;/b&gt;" style="html=1;verticalAlign=bottom;endArrow=block;curved=0;rounded=0;exitX=1;exitY=0.5;exitDx=0;exitDy=0;entryX=0;entryY=0.5;entryDx=0;entryDy=0;" edge="1" parent="1" source="Hd3YsqLoLBnvvxdRsD4A-11" target="Hd3YsqLoLBnvvxdRsD4A-12">
          <mxGeometry y="10" width="80" relative="1" as="geometry">
            <mxPoint x="530" y="850" as="sourcePoint" />
            <mxPoint x="530" y="970" as="targetPoint" />
            <mxPoint as="offset" />
          </mxGeometry>
        </mxCell>
        <mxCell id="Hd3YsqLoLBnvvxdRsD4A-28" value="&lt;b&gt;Updating Service Status&lt;/b&gt;" style="html=1;verticalAlign=bottom;endArrow=block;curved=0;rounded=0;exitX=1;exitY=0.5;exitDx=0;exitDy=0;entryX=0.5;entryY=1;entryDx=0;entryDy=0;" edge="1" parent="1" source="Hd3YsqLoLBnvvxdRsD4A-12" target="Hd3YsqLoLBnvvxdRsD4A-8">
          <mxGeometry x="0.0345" y="-100" width="80" relative="1" as="geometry">
            <mxPoint x="770" y="562" as="sourcePoint" />
            <mxPoint x="770" y="840" as="targetPoint" />
            <mxPoint as="offset" />
            <Array as="points">
              <mxPoint x="780" y="980" />
            </Array>
          </mxGeometry>
        </mxCell>
        <mxCell id="Hd3YsqLoLBnvvxdRsD4A-29" value="" style="html=1;verticalAlign=bottom;endArrow=block;curved=0;rounded=0;exitX=0.5;exitY=1;exitDx=0;exitDy=0;entryX=0.5;entryY=0;entryDx=0;entryDy=0;" edge="1" parent="1" source="Hd3YsqLoLBnvvxdRsD4A-11" target="Hd3YsqLoLBnvvxdRsD4A-16">
          <mxGeometry x="0.0938" y="80" width="80" relative="1" as="geometry">
            <mxPoint x="390" y="1128" as="sourcePoint" />
            <mxPoint x="550" y="1128" as="targetPoint" />
            <mxPoint as="offset" />
          </mxGeometry>
        </mxCell>
        <mxCell id="Hd3YsqLoLBnvvxdRsD4A-30" value="NO - No Need any Emergency&amp;nbsp;" style="html=1;verticalAlign=bottom;endArrow=block;curved=0;rounded=0;exitX=1;exitY=0.5;exitDx=0;exitDy=0;entryX=0.414;entryY=1.033;entryDx=0;entryDy=0;entryPerimeter=0;" edge="1" parent="1" source="Hd3YsqLoLBnvvxdRsD4A-16" target="Hd3YsqLoLBnvvxdRsD4A-12">
          <mxGeometry x="-0.4772" y="8" width="80" relative="1" as="geometry">
            <mxPoint x="560" y="1070" as="sourcePoint" />
            <mxPoint x="560" y="1198" as="targetPoint" />
            <mxPoint x="1" as="offset" />
            <Array as="points">
              <mxPoint x="650" y="1178" />
            </Array>
          </mxGeometry>
        </mxCell>
        <mxCell id="Hd3YsqLoLBnvvxdRsD4A-31" value="YES - Need an Emergency" style="html=1;verticalAlign=bottom;endArrow=block;curved=0;rounded=0;exitX=0;exitY=0.5;exitDx=0;exitDy=0;entryX=0.394;entryY=0.022;entryDx=0;entryDy=0;entryPerimeter=0;" edge="1" parent="1" source="Hd3YsqLoLBnvvxdRsD4A-16" target="Hd3YsqLoLBnvvxdRsD4A-18">
          <mxGeometry x="-0.2151" y="-8" width="80" relative="1" as="geometry">
            <mxPoint x="220" y="1080" as="sourcePoint" />
            <mxPoint x="220" y="1208" as="targetPoint" />
            <mxPoint x="1" as="offset" />
            <Array as="points">
              <mxPoint x="120" y="1178" />
            </Array>
          </mxGeometry>
        </mxCell>
        <mxCell id="Hd3YsqLoLBnvvxdRsD4A-32" value="Received Payment" style="rounded=1;whiteSpace=wrap;html=1;" vertex="1" parent="1">
          <mxGeometry x="620" y="1320" width="120" height="40" as="geometry" />
        </mxCell>
        <mxCell id="Hd3YsqLoLBnvvxdRsD4A-33" value="Logged Out" style="rounded=1;whiteSpace=wrap;html=1;" vertex="1" parent="1">
          <mxGeometry x="620" y="1560" width="120" height="40" as="geometry" />
        </mxCell>
        <mxCell id="Hd3YsqLoLBnvvxdRsD4A-34" value="&lt;b&gt;Receiving Payment&lt;/b&gt;" style="html=1;verticalAlign=bottom;endArrow=block;curved=0;rounded=0;exitX=0.67;exitY=0.976;exitDx=0;exitDy=0;entryX=0.5;entryY=0;entryDx=0;entryDy=0;exitPerimeter=0;" edge="1" parent="1" source="Hd3YsqLoLBnvvxdRsD4A-12" target="Hd3YsqLoLBnvvxdRsD4A-32">
          <mxGeometry x="0.4386" y="80" width="80" relative="1" as="geometry">
            <mxPoint x="660" y="1150" as="sourcePoint" />
            <mxPoint x="820" y="1150" as="targetPoint" />
            <mxPoint as="offset" />
          </mxGeometry>
        </mxCell>
        <mxCell id="Hd3YsqLoLBnvvxdRsD4A-35" value="&lt;b&gt;Login Out&lt;/b&gt;" style="html=1;verticalAlign=bottom;endArrow=block;curved=0;rounded=0;exitX=0.5;exitY=1;exitDx=0;exitDy=0;entryX=0.5;entryY=0;entryDx=0;entryDy=0;" edge="1" parent="1" source="Hd3YsqLoLBnvvxdRsD4A-32" target="Hd3YsqLoLBnvvxdRsD4A-33">
          <mxGeometry x="0.4" y="40" width="80" relative="1" as="geometry">
            <mxPoint x="720" y="1400" as="sourcePoint" />
            <mxPoint x="720" y="1721" as="targetPoint" />
            <mxPoint as="offset" />
          </mxGeometry>
        </mxCell>
        <mxCell id="Hd3YsqLoLBnvvxdRsD4A-36" value="&lt;b&gt;Login Out&lt;/b&gt;" style="html=1;verticalAlign=bottom;endArrow=block;curved=0;rounded=0;exitX=0.393;exitY=1.012;exitDx=0;exitDy=0;entryX=0;entryY=0.5;entryDx=0;entryDy=0;exitPerimeter=0;" edge="1" parent="1" source="Hd3YsqLoLBnvvxdRsD4A-18" target="Hd3YsqLoLBnvvxdRsD4A-33">
          <mxGeometry x="0.2501" y="10" width="80" relative="1" as="geometry">
            <mxPoint x="378.89" y="1540" as="sourcePoint" />
            <mxPoint x="378.89" y="1740" as="targetPoint" />
            <mxPoint as="offset" />
            <Array as="points">
              <mxPoint x="120" y="1580" />
            </Array>
          </mxGeometry>
        </mxCell>
        <mxCell id="Hd3YsqLoLBnvvxdRsD4A-37" value="" style="html=1;verticalAlign=bottom;endArrow=block;curved=0;rounded=0;exitX=0.5;exitY=1;exitDx=0;exitDy=0;" edge="1" parent="1" source="Hd3YsqLoLBnvvxdRsD4A-33" target="Hd3YsqLoLBnvvxdRsD4A-39">
          <mxGeometry x="0.4" y="40" width="80" relative="1" as="geometry">
            <mxPoint x="679.38" y="1610" as="sourcePoint" />
            <mxPoint x="679" y="1760" as="targetPoint" />
            <mxPoint as="offset" />
          </mxGeometry>
        </mxCell>
        <mxCell id="Hd3YsqLoLBnvvxdRsD4A-39" value="" style="ellipse;html=1;shape=endState;fillColor=#000000;strokeColor=#ff0000;" vertex="1" parent="1">
          <mxGeometry x="663.9999999999999" y="1745" width="30" height="30" as="geometry" />
        </mxCell>
        <mxCell id="Hd3YsqLoLBnvvxdRsD4A-40" value="&lt;b&gt;Selected Emergency Assistant&lt;/b&gt;" style="text;html=1;align=center;verticalAlign=middle;whiteSpace=wrap;rounded=0;" vertex="1" parent="1">
          <mxGeometry x="40" y="1287" width="180" height="21" as="geometry" />
        </mxCell>
        <mxCell id="Hd3YsqLoLBnvvxdRsD4A-44" value="" style="endArrow=none;html=1;rounded=0;exitX=0;exitY=0.25;exitDx=0;exitDy=0;entryX=1;entryY=0.25;entryDx=0;entryDy=0;" edge="1" parent="1">
          <mxGeometry width="50" height="50" relative="1" as="geometry">
            <mxPoint x="10" y="1320" as="sourcePoint" />
            <mxPoint x="290" y="1320" as="targetPoint" />
          </mxGeometry>
        </mxCell>
        <mxCell id="Hd3YsqLoLBnvvxdRsD4A-45" value="" style="endArrow=none;dashed=1;html=1;rounded=0;exitX=0;exitY=0.5;exitDx=0;exitDy=0;entryX=1;entryY=0.5;entryDx=0;entryDy=0;" edge="1" parent="1">
          <mxGeometry width="50" height="50" relative="1" as="geometry">
            <mxPoint x="10" y="1359.17" as="sourcePoint" />
            <mxPoint x="290" y="1359.17" as="targetPoint" />
          </mxGeometry>
        </mxCell>
        <mxCell id="Hd3YsqLoLBnvvxdRsD4A-46" value="" style="endArrow=none;dashed=1;html=1;rounded=0;exitX=0;exitY=0.5;exitDx=0;exitDy=0;entryX=1;entryY=0.5;entryDx=0;entryDy=0;" edge="1" parent="1">
          <mxGeometry width="50" height="50" relative="1" as="geometry">
            <mxPoint x="10" y="1400" as="sourcePoint" />
            <mxPoint x="290" y="1400" as="targetPoint" />
          </mxGeometry>
        </mxCell>
        <mxCell id="Hd3YsqLoLBnvvxdRsD4A-47" value="Guardian" style="rounded=1;whiteSpace=wrap;html=1;" vertex="1" parent="1">
          <mxGeometry x="110" y="1330" width="80" height="21" as="geometry" />
        </mxCell>
        <mxCell id="Hd3YsqLoLBnvvxdRsD4A-48" value="" style="ellipse;html=1;shape=startState;fillColor=#000000;strokeColor=#ff0000;" vertex="1" parent="1">
          <mxGeometry x="22" y="1330" width="20" height="20" as="geometry" />
        </mxCell>
        <mxCell id="Hd3YsqLoLBnvvxdRsD4A-49" value="" style="edgeStyle=orthogonalEdgeStyle;html=1;verticalAlign=bottom;endArrow=open;endSize=8;strokeColor=#ff0000;rounded=0;exitX=0.902;exitY=0.495;exitDx=0;exitDy=0;exitPerimeter=0;" edge="1" parent="1" source="Hd3YsqLoLBnvvxdRsD4A-48">
          <mxGeometry relative="1" as="geometry">
            <mxPoint x="110" y="1340" as="targetPoint" />
            <mxPoint x="143" y="1370" as="sourcePoint" />
            <Array as="points" />
          </mxGeometry>
        </mxCell>
        <mxCell id="Hd3YsqLoLBnvvxdRsD4A-50" value="" style="endArrow=open;endFill=1;endSize=12;html=1;rounded=0;fontSize=12;curved=1;exitX=1;exitY=0.5;exitDx=0;exitDy=0;entryX=-0.031;entryY=0.588;entryDx=0;entryDy=0;entryPerimeter=0;" edge="1" parent="1" target="Hd3YsqLoLBnvvxdRsD4A-51">
          <mxGeometry width="160" relative="1" as="geometry">
            <mxPoint x="190" y="1340.08" as="sourcePoint" />
            <mxPoint x="246" y="1340.08" as="targetPoint" />
          </mxGeometry>
        </mxCell>
        <mxCell id="Hd3YsqLoLBnvvxdRsD4A-51" value="" style="ellipse;html=1;shape=endState;fillColor=#000000;strokeColor=#ff0000;" vertex="1" parent="1">
          <mxGeometry x="250" y="1329" width="20" height="20" as="geometry" />
        </mxCell>
        <mxCell id="Hd3YsqLoLBnvvxdRsD4A-53" value="" style="ellipse;html=1;shape=startState;fillColor=#000000;strokeColor=#ff0000;" vertex="1" parent="1">
          <mxGeometry x="22" y="1370" width="20" height="20" as="geometry" />
        </mxCell>
        <mxCell id="Hd3YsqLoLBnvvxdRsD4A-54" value="" style="ellipse;html=1;shape=startState;fillColor=#000000;strokeColor=#ff0000;" vertex="1" parent="1">
          <mxGeometry x="22" y="1410" width="20" height="20" as="geometry" />
        </mxCell>
        <mxCell id="Hd3YsqLoLBnvvxdRsD4A-55" value="Police" style="rounded=1;whiteSpace=wrap;html=1;" vertex="1" parent="1">
          <mxGeometry x="110" y="1370" width="80" height="21" as="geometry" />
        </mxCell>
        <mxCell id="Hd3YsqLoLBnvvxdRsD4A-56" value="Ambulance" style="rounded=1;whiteSpace=wrap;html=1;" vertex="1" parent="1">
          <mxGeometry x="110" y="1409" width="80" height="21" as="geometry" />
        </mxCell>
        <mxCell id="Hd3YsqLoLBnvvxdRsD4A-57" value="" style="edgeStyle=orthogonalEdgeStyle;html=1;verticalAlign=bottom;endArrow=open;endSize=8;strokeColor=#ff0000;rounded=0;exitX=0.764;exitY=0.495;exitDx=0;exitDy=0;exitPerimeter=0;entryX=0;entryY=0.5;entryDx=0;entryDy=0;" edge="1" parent="1" source="Hd3YsqLoLBnvvxdRsD4A-53" target="Hd3YsqLoLBnvvxdRsD4A-55">
          <mxGeometry relative="1" as="geometry">
            <mxPoint x="112" y="1379.84" as="targetPoint" />
            <mxPoint x="42" y="1379.84" as="sourcePoint" />
            <Array as="points" />
          </mxGeometry>
        </mxCell>
        <mxCell id="Hd3YsqLoLBnvvxdRsD4A-58" value="" style="edgeStyle=orthogonalEdgeStyle;html=1;verticalAlign=bottom;endArrow=open;endSize=8;strokeColor=#ff0000;rounded=0;exitX=0.764;exitY=0.495;exitDx=0;exitDy=0;exitPerimeter=0;entryX=0;entryY=0.5;entryDx=0;entryDy=0;" edge="1" parent="1" source="Hd3YsqLoLBnvvxdRsD4A-54" target="Hd3YsqLoLBnvvxdRsD4A-56">
          <mxGeometry relative="1" as="geometry">
            <mxPoint x="110" y="1429.84" as="targetPoint" />
            <mxPoint x="40" y="1429.84" as="sourcePoint" />
            <Array as="points" />
          </mxGeometry>
        </mxCell>
        <mxCell id="Hd3YsqLoLBnvvxdRsD4A-59" value="" style="ellipse;html=1;shape=endState;fillColor=#000000;strokeColor=#ff0000;" vertex="1" parent="1">
          <mxGeometry x="250" y="1408" width="20" height="20" as="geometry" />
        </mxCell>
        <mxCell id="Hd3YsqLoLBnvvxdRsD4A-60" value="" style="ellipse;html=1;shape=endState;fillColor=#000000;strokeColor=#ff0000;" vertex="1" parent="1">
          <mxGeometry x="250" y="1370" width="20" height="20" as="geometry" />
        </mxCell>
        <mxCell id="Hd3YsqLoLBnvvxdRsD4A-61" value="" style="endArrow=open;endFill=1;endSize=12;html=1;rounded=0;fontSize=12;curved=1;exitX=1;exitY=0.5;exitDx=0;exitDy=0;entryX=-0.031;entryY=0.588;entryDx=0;entryDy=0;entryPerimeter=0;" edge="1" parent="1" source="Hd3YsqLoLBnvvxdRsD4A-55">
          <mxGeometry width="160" relative="1" as="geometry">
            <mxPoint x="191" y="1380.04" as="sourcePoint" />
            <mxPoint x="250" y="1380.96" as="targetPoint" />
          </mxGeometry>
        </mxCell>
        <mxCell id="Hd3YsqLoLBnvvxdRsD4A-62" value="" style="endArrow=open;endFill=1;endSize=12;html=1;rounded=0;fontSize=12;curved=1;exitX=1;exitY=0.5;exitDx=0;exitDy=0;entryX=0.012;entryY=0.553;entryDx=0;entryDy=0;entryPerimeter=0;" edge="1" parent="1" source="Hd3YsqLoLBnvvxdRsD4A-56" target="Hd3YsqLoLBnvvxdRsD4A-59">
          <mxGeometry width="160" relative="1" as="geometry">
            <mxPoint x="200" y="1417.54" as="sourcePoint" />
            <mxPoint x="259" y="1418.46" as="targetPoint" />
          </mxGeometry>
        </mxCell>
      </root>
    </mxGraphModel>
  </diagram>
</mxfile>
